<svg version="1.1" xmlns="http://www.w3.org/2000/svg" viewBox="0 0 650.501015422484 859.389430468902" width="1301.002030844968" height="1718.778860937804">
  <!-- svg-source:excalidraw -->
  
  <defs>
    <style>
      @font-face {
        font-family: "Virgil";
        src: url("https://excalidraw.com/FG_Virgil.woff2");
      }
      @font-face {
        font-family: "Cascadia";
        src: url("https://excalidraw.com/Cascadia.woff2");
      }
    </style>
  </defs>
  <rect x="0" y="0" width="650.501015422484" height="859.389430468902" fill="#ffffff"></rect><g transform="translate(57.62038909211128 49.64469927921891) rotate(0 269.904296875 378.41015625)"><path d="M0.5435245960950852 -0.3242218941450119 C167.17961076305875 3.54244608140277, 331.68293020638964 4.195839540722838, 539.2578727215529 -1.4547641724348068 M-0.4307192787528038 0.74969532340765 C198.07647425534742 0.6300679652690306, 396.48122790907655 0.8441526381968871, 539.3040324702858 -0.47753307968378067 M538.6389037579298 -1.30560722053051 C544.6311775703401 247.38232498435684, 542.6577203292818 493.461666491002, 540.8139421910048 757.9949082404376 M540.2241797938943 -0.04607517868280411 C537.5832445029738 289.71643691641367, 537.5431687716964 578.6782394778188, 539.7835912719369 756.3256939157843 M540.7540796726942 757.9712868720293 C414.16046961388855 757.4141100505972, 289.2174912689501 759.4336839298392, 0.12369513213634492 756.5080358535051 M539.739615060389 756.7499862894416 C334.69258539054937 756.1420041930862, 128.87797912158857 756.6746099841781, -0.7174758419394494 757.1439462408423 M-0.25752969086170197 757.6046049147844 C-5.828317762394319 555.0013374021611, -6.5414905796245435 354.07170575379564, -1.1703879863023758 0.20151319801807405 M-0.5165912136435509 756.4458387121558 C4.647266689131851 565.766772213475, 4.173093667815323 373.6943203998526, 0.3249033942818642 0.21174537986516953" stroke="#805a46" stroke-width="2" fill="none"></path></g><g><g transform="translate(88.38992034211128 52.98844927921891) rotate(0 0.36301812475193174 -18.95862651243806)"><path d="M-1.0119318924844265 1.035617884248495 C-1.3139309502828838 -13.128669706992369, -0.44860805274620363 -27.008248900923938, 1.7933388985693455 -38.95287090912461 M0.2488377969712019 -0.35070240311324596 C-0.8005534126418206 -10.619689023995743, 0.17316652997447818 -19.409184697299207, -0.14237734861671925 -37.91183882765472" stroke="#805a46" stroke-width="2" fill="none"></path></g></g><g><g transform="translate(330.1828890921113 48.70719927921891) rotate(0 0.07129377499222755 -19.636641503311694)"><path d="M-0.6153095923364162 -1.6093316711485386 C0.26754438674121045 -9.652855138174855, -0.9324978238617769 -24.232496202760156, 0.7578971423208714 -38.70719927921891 M-0.35413739271461964 -0.5660837274044752 C0.8026348958183371 -13.158910876202501, 0.25163630528317293 -27.002240804083637, 0.2998726051300764 -38.00963401608169" stroke="#805a46" stroke-width="2" fill="none"></path></g></g><g><g transform="translate(115.24929534211128 50.88883990421891) rotate(0 0.39943132830171635 -19.0553337642923)"><path d="M-0.331124659627676 0.2815551124513149 C-1.0063287799659155 -8.917296709739167, 1.9946556704171963 -15.822449246173784, 0.5723402537405491 -37.778455439954996 M-0.14252731390297413 0.0640305895358324 C0.7922618877869536 -13.753086649694453, 0.33931297336523136 -28.363922548797856, 1.2303623836487532 -38.392222641035914" stroke="#805a46" stroke-width="2" fill="none"></path></g></g><g><g transform="translate(144.13601409211128 50.34196490421891) rotate(0 0.42347365990281105 -18.347734658047557)"><path d="M-1.0531668625772 -1.4176234640181065 C2.0281014687504646 -11.058992580063205, 0.5209787591017812 -20.786378313008754, 1.900114182382822 -36.803145948797464 M0.8205874841660261 0.5784481782466173 C0.4105918010143068 -12.467355913946376, 1.2041240652935086 -26.458188452004396, 0.74355080537498 -37.27391749434173" stroke="#805a46" stroke-width="2" fill="none"></path></g></g><g><g transform="translate(184.27663909211128 51.09196490421891) rotate(0 -0.2529628314077854 -17.682894243858755)"><path d="M-1.4176234640181065 1.8977683819830418 C-0.8043144463114004 -10.29551973094509, -0.22463189792069896 -19.58692224556668, 0.9116978012025356 -36.65028190240264 M0.5784481782466173 0.27201214246451855 C0.34557676160540723 -9.72716585551345, -0.8084942170528666 -20.919454204239013, 0.44092625565826893 -37.26355686970055" stroke="#805a46" stroke-width="2" fill="none"></path></g></g><g><g transform="translate(207.43288909211128 51.96305865421891) rotate(0 1.0848902622237802 -18.72588473651558)"><path d="M1.8977683819830418 -0.8224332965910435 C0.5981433523918531 -12.078713700375086, 2.0044367199397675 -22.870278248967665, 1.0645618475973606 -37.74989837780595 M0.27201214246451855 0.29812890477478504 C0.7495313296122913 -12.408167739699566, 0.33932051607691394 -22.76920532122342, 0.45128688029944897 -37.145844815298915" stroke="#805a46" stroke-width="2" fill="none"></path></g></g><g><g transform="translate(246.18288909211128 51.61930865421891) rotate(0 -0.1267171809449792 -18.17821009363979)"><path d="M-0.8224332965910435 0.3223402537405491 C0.01377893214164938 -7.6188745556380315, 1.050923837516966 -17.721043417966868, -0.03505462780594826 -37.336782570928335 M0.29812890477478504 0.9803623836487532 C-1.0485789100865806 -13.82090053772976, 0.16524092371175356 -28.42693577555387, 0.5689989347010851 -37.06726679392159" stroke="#805a46" stroke-width="2" fill="none"></path></g></g><g><g transform="translate(273.2336703421113 51.98258990421891) rotate(0 0.6513513186946511 -19.170604289509356)"><path d="M0.3223402537405491 -0.3136116899549961 C1.351895909559171 -7.92117520338812, 0.5736232814734831 -17.451828678608, 0.3780611790716648 -35.82366878166795 M0.9803623836487532 -0.9273788910359144 C0.48110308567578614 -13.216419253151836, 0.27830036505642053 -26.49494676065719, 0.6475769560784101 -38.027596889063716" stroke="#805a46" stroke-width="2" fill="none"></path></g></g><g><g transform="translate(302.0500765921113 48.74430865421891) rotate(0 0.4818980386480689 -18.235752656124532)"><path d="M-0.3136116899549961 1.650114182382822 C0.9144815807352279 -13.980273997954065, 0.06645125650153205 -29.46120758671401, 1.8911749683320522 -36.307947393506765 M-0.9273788910359144 0.49355080537498 C0.1610330308724224 -12.059706392213267, 0.37090601347685154 -24.1219586829879, -0.31275313906371593 -38.12161949463189" stroke="#805a46" stroke-width="2" fill="none"></path></g></g><g><g transform="translate(61.11257659211128 51.24040240421891) rotate(0 0.6216692188754678 -18.129560831934214)"><path d="M1.650114182382822 0.6616978012025356 C0.8188992951863474 -9.983498990614462, 0.19711821045326358 -17.75610577189742, 1.4068963564932346 -36.92081946507096 M0.49355080537498 0.19092625565826893 C-0.08355113229896238 -12.035071026545921, 0.19519216609936846 -25.273211508785316, -0.4067757446318865 -36.686812875792384" stroke="#805a46" stroke-width="2" fill="none"></path></g></g><g><g transform="translate(362.2492953421113 47.88883990421891) rotate(0 0.6510430406858632 -18.160976513288915)"><path d="M0.6616978012025356 0.8145618475973606 C-0.14727830982250456 -11.717275950692565, 1.8579805394872528 -22.531715260307248, 0.7940242849290371 -36.86858594045043 M0.19092625565826893 0.20128688029944897 C0.765949046789392 -14.516022398112836, -0.0162939673841902 -30.482740576000943, 1.0280308742076159 -37.13651487417519" stroke="#805a46" stroke-width="2" fill="none"></path></g></g><g><g transform="translate(396.2492953421113 50.88883990421891) rotate(0 0.3752296808572737 -18.191339937970042)"><path d="M0.8145618475973606 -0.28505462780594826 C-0.10996531711592977 -9.011634630802583, 0.9899497141812026 -20.760767791088732, 0.8462578095495701 -35.504118982702494 M0.20128688029944897 0.3189989347010851 C0.26448444574190944 -8.32827305473198, -0.7380527272442851 -14.752531641489767, 0.5783288758248091 -36.70167881064117" stroke="#805a46" stroke-width="2" fill="none"></path></g></g><g><g transform="translate(416.2492953421113 50.88883990421891) rotate(0 0.962835069745779 -19.46101228799671)"><path d="M-0.28505462780594826 0.1280611790716648 C1.6128493719529797 -13.174638471447835, 0.6113251158297499 -28.06579364402307, 2.2107247672975063 -39.31960153207183 M0.3189989347010851 0.39757695607841015 C-0.5469445922894375 -13.745812467438663, 0.8811781911162688 -25.849241352587995, 1.0131649393588305 -36.73005595989525" stroke="#805a46" stroke-width="2" fill="none"></path></g></g><g><g transform="translate(445.2492953421113 49.88883990421891) rotate(0 -0.309984995983541 -17.441126317717135)"><path d="M0.1280611790716648 1.6411749683320522 C1.0875804172835342 -11.934592758374784, 0.6102130928549012 -22.99686563759489, -1.6047577820718288 -36.47774213925004 M0.39757695607841015 -0.5627531390637159 C-0.6524144034338678 -11.177521981730099, 0.4124633734142844 -23.147143275179843, 0.9847877901047468 -36.52342760376632" stroke="#805a46" stroke-width="2" fill="none"></path></g></g><g><g transform="translate(477.2492953421113 50.88883990421891) rotate(0 0.5392109146341681 -18.604576273821294)"><path d="M1.6411749683320522 1.1568963564932346 C0.6826039434788254 -12.16922700917159, 2.1844864489422617 -27.38556734304031, 1.23710161074996 -37.08299123868346 M-0.5627531390637159 -0.6567757446318865 C0.7385505937651761 -11.666236343499769, 0.8037168309238769 -23.253348706154213, 1.1914161462336779 -38.36604890413582" stroke="#805a46" stroke-width="2" fill="none"></path></g></g><g><g transform="translate(500.2492953421113 50.88883990421891) rotate(0 0.2500603059306741 -18.380404083058238)"><path d="M1.1568963564932346 0.5440242849290371 C0.6437056663801922 -8.746803471864697, -1.735873108088781 -20.425903398864033, 0.6318525113165379 -37.0622699894011 M-0.6567757446318865 0.7780308742076159 C0.26235226381155374 -11.670005827292771, 0.7517861514590186 -23.926332269917182, -0.6512051541358232 -37.53883904032409" stroke="#805a46" stroke-width="2" fill="none"></path></g></g><g><g transform="translate(519.2492953421113 50.88883990421891) rotate(0 0.6612298503029024 -18.34762258734554)"><path d="M0.5440242849290371 0.5962578095495701 C1.7298937132610446 -13.33554663073548, 0.8328713214518939 -22.57827906556515, 0.6525737605988979 -36.82684588059783 M0.7780308742076159 0.3283288758248091 C1.0589389475092321 -11.9925392493415, 1.3221295782860398 -26.357501172389895, 0.1760047096759081 -37.29150298424065" stroke="#805a46" stroke-width="2" fill="none"></path></g></g><g><g transform="translate(536.2492953421113 51.88883990421891) rotate(0 0.15620422357869757 -18.08600750658661)"><path d="M0.5962578095495701 1.9607247672975063 C-1.975957801122495 -13.32734973235478, 0.3561671793700225 -28.22564889525442, 0.8879978694021702 -36.66968983784318 M0.3283288758248091 0.7631649393588305 C1.0417789681423892 -8.191636213467428, -0.5332828045747737 -18.33815493254078, 0.42334076575934887 -38.13273978047073" stroke="#805a46" stroke-width="2" fill="none"></path></g></g><g><g transform="translate(560.7688265921113 51.26774615421891) rotate(0 0.7714143684133887 -18.927781119011343)"><path d="M1.9607247672975063 -1.8547577820718288 C0.974653891050766 -13.025492997493567, 0.4795872453558695 -26.175947825956104, 1.0451539121568203 -38.59035002812743 M0.7631649393588305 0.7347877901047468 C0.7085087012692384 -9.680879036183033, -0.24832212890432853 -17.38518617614551, -0.4178960304707289 -37.47413060255349" stroke="#805a46" stroke-width="2" fill="none"></path></g></g><g><g transform="translate(582.4485140921113 49.73649615421891) rotate(0 -0.559984995983541 -18.895646814256907)"><path d="M-1.8547577820718288 0.98710161074996 C0.3519592865306913 -11.858419511913818, 0.6899049481779367 -23.72438172690949, -0.8755062781274319 -38.77839523926377 M0.7347877901047468 0.9414161462336779 C-0.9297622825945291 -14.230236841158915, 0.23923440915583344 -28.978471219791977, 0.24071314744651318 -37.75050335936248" stroke="#805a46" stroke-width="2" fill="none"></path></g></g><g><g transform="translate(168.24929534211128 53.88883990421891) rotate(0 -0.24328864296182928 -19.306191923096776)"><path d="M-0.7280835546553135 -1.3212667666375637 C1.0875555067211826 -9.465237981540122, -0.12303879415798291 -15.874240878094861, -0.5565076507627964 -36.39565372094512 M-0.6215387564152479 -0.29731092043220997 C0.3550447781739786 -9.520388048076565, -0.6272676083555415 -17.486873536579367, -0.040295420214533806 -38.31507292576134" stroke="#805a46" stroke-width="2" fill="none"></path></g></g><g><g transform="translate(226.24929534211128 51.88883990421891) rotate(0 -0.0010383687913417816 -18.73052180185914)"><path d="M-1.3212667666375637 1.1319076381623745 C-1.4189163117942372 -12.331825673221175, 0.03358595000645437 -25.209864017026558, 1.3191900290548801 -38.592951241880655 M-0.29731092043220997 0.5045598167926073 C-0.46437213888108086 -13.880687453898572, 0.7844176946515655 -26.975921722725907, -0.600229175761342 -36.87738692574203" stroke="#805a46" stroke-width="2" fill="none"></path></g></g><g><g transform="translate(261.2492953421113 51.88883990421891) rotate(0 0.1269000731408596 -19.364781798794866)"><path d="M1.1319076381623745 -1.6863982640206814 C0.06836963038011162 -9.692540809286731, -0.5449509884411964 -17.686903388938813, -0.8781074918806553 -36.34158432111144 M0.5045598167926073 -0.39308360405266285 C-0.22009405365613932 -12.075337137975295, 0.11396040071333119 -26.534977702250764, 0.8374568242579699 -38.33647999353707" stroke="#805a46" stroke-width="2" fill="none"></path></g></g><g><g transform="translate(345.2492953421113 54.88883990421891) rotate(0 -0.15656941756606102 -19.17427903506905)"><path d="M-1.6863982640206814 -0.13060254231095314 C-0.001915671631504634 -10.683498829705204, 1.4484932050092176 -20.880674965217768, 1.3732594288885593 -36.60895187035203 M-0.39308360405266285 -0.5386512260884047 C0.9375140895001095 -9.202424705389857, -0.6199190417904902 -17.235540346550696, -0.6216362435370684 -38.217955527827144" stroke="#805a46" stroke-width="2" fill="none"></path></g></g><g><g transform="translate(380.2492953421113 52.88883990421891) rotate(0 0.19072015633202 -18.97062788810581)"><path d="M-0.13060254231095314 -0.31531989201903343 C-0.9600571993616904 -7.693102449907894, -1.2231728750625188 -16.403433526867012, 1.1058918796479702 -38.707921262830496 M-0.5386512260884047 0.7666654866188765 C-0.4117607402119757 -10.97482887383507, 0.5335587312497228 -21.121818348694656, -0.5031117778271437 -36.92347124405205" stroke="#805a46" stroke-width="2" fill="none"></path></g></g><g><g transform="translate(465.2492953421113 55.88883990421891) rotate(0 0.0013806187178033724 -19.174880505539477)"><path d="M-0.31531989201903343 -0.8065076507627964 C1.4742421118409401 -14.487734503862013, 1.617460357151649 -25.863525397492634, -0.9930775128304958 -38.05946559086442 M0.7666654866188765 -0.2902954202145338 C-0.6153470222763281 -12.540975142543175, -0.5491400946322392 -27.011322339494654, 0.7913725059479475 -36.872609136626124" stroke="#805a46" stroke-width="2" fill="none"></path></g></g><g><g transform="translate(89.73757659211128 846.5939180292189) rotate(0 0.135199423879385 -18.39603179320693)"><path d="M-1.0880110897123814 0.6166884936392307 C0.3331717821960774 -13.771220233680653, 0.13176161979376044 -27.844982775031532, 1.3584099374711514 -37.40875208005309 M-0.2685717921704054 -0.22897985763847828 C1.007403773111946 -10.979525220025828, -0.16717073098225227 -20.93083372653841, 1.062059285119176 -36.5510917622596" stroke="#805a46" stroke-width="2" fill="none"></path></g></g><g><g transform="translate(331.5305453421113 842.3126680292189) rotate(0 -0.039343451331944834 -18.485041529871523)"><path d="M0.6166884936392307 0.1702764593064785 C-0.937822086498636 -10.614758808458355, -1.8244907263753702 -19.882954903288994, 0.06781041994690895 -37.883374992758036 M-0.22897985763847828 0.9132919330149889 C-0.8406536672571383 -11.335457062669668, -0.29649242412357124 -21.196296171137586, 0.9254707377403975 -37.76217478327453" stroke="#805a46" stroke-width="2" fill="none"></path></g></g><g><g transform="translate(116.59695159211128 844.4943086542189) rotate(0 0.3821459701284766 -19.03929780330509)"><path d="M0.1702764593064785 -0.5850328169763088 C0.18345049543589997 -16.274056887629413, 1.5097166277775977 -29.541285775155707, -0.14899999275803566 -37.593494173139334 M0.9132919330149889 -0.4851014334708452 C-0.13173226086124487 -14.77131535449953, 1.110564903442937 -28.740690302442818, -0.027799783274531364 -37.13818219490349" stroke="#805a46" stroke-width="2" fill="none"></path></g></g><g><g transform="translate(145.48367034211128 843.9474336542189) rotate(0 -0.06594572851724934 -18.65201297495514)"><path d="M-0.5850328169763088 -0.11910826340317726 C-1.5291035636740709 -8.093147759385902, 0.06337070242101617 -18.80190254089801, 0.12134957686066628 -35.54941910877824 M-0.4851014334708452 -0.331295071169734 C0.20969221684899822 -9.42347704678119, 1.1361103440151055 -20.74658921724273, 0.5766615550965071 -37.184917686507106" stroke="#805a46" stroke-width="2" fill="none"></path></g></g><g><g transform="translate(185.62429534211128 844.6974336542189) rotate(0 0.9170647850260139 -18.97318388428539)"><path d="M-0.11910826340317726 -1.4749827347695827 C1.1592216389305394 -12.337837066862704, -0.2654796851281571 -24.917239187779778, 2.1654246412217617 -38.00198733434081 M-0.331295071169734 0.05561956577003002 C0.5391713929927937 -9.466618924843644, -0.48141217184187546 -20.435293023655255, 0.5299260634928942 -37.15383288450539" stroke="#805a46" stroke-width="2" fill="none"></path></g></g><g><g transform="translate(208.78054534211128 845.5685274042189) rotate(0 -0.3431903230612079 -18.407196763902903)"><path d="M-1.4749827347695827 1.1084099374711514 C0.2428109410714387 -11.957273279539804, 0.135197303726527 -21.20127081767103, -0.2871435843408108 -37.92280346527696 M0.05561956577003002 0.8120592851191759 C1.1933267801446346 -14.938058627450811, 0.7040686458261189 -29.041419862537587, 0.5610108654946089 -36.6593554597348" stroke="#805a46" stroke-width="2" fill="none"></path></g></g><g><g transform="translate(247.53054534211128 845.2247774042189) rotate(0 0.4502251110970974 -18.412916185334325)"><path d="M1.1084099374711514 0.05609166994690895 C-0.30900104058157013 -10.270351665888883, 2.0731106831860235 -20.822389798258374, -0.20795971527695656 -35.63825988397002 M0.8120592851191759 0.9137519877403975 C-0.09080813834611035 -9.095505678029296, 0.5297901725845441 -18.53318455184257, 1.0554882902652025 -37.73958435840905" stroke="#805a46" stroke-width="2" fill="none"></path></g></g><g><g transform="translate(274.5813265921113 845.5880586542189) rotate(0 1.0259216288104653 -19.35642320010811)"><path d="M0.05609166994690895 -0.39899999275803566 C0.22116071202857712 -9.102295372313383, -0.11382130246543964 -22.492014229925406, 2.076583866029978 -38.43504661694169 M0.9137519877403975 -0.27779978327453136 C0.3725413949070935 -9.720365402067983, 0.423608328525952 -19.193064492643753, -0.024740608409047127 -37.468752263113856" stroke="#805a46" stroke-width="2" fill="none"></path></g></g><g><g transform="translate(303.3977328421113 842.3497774042189) rotate(0 -0.10142038657176045 -18.903009356930852)"><path d="M-0.39899999275803566 -0.12865042313933372 C1.7643553314456222 -9.01366693932374, -0.5524663092377158 -15.126392729348446, -0.7202028669416904 -38.12743389233947 M-0.27779978327453136 0.3266615550965071 C0.052079810309878655 -11.139104473576445, 0.6540325262264377 -23.172686906581802, 0.24609148688614368 -38.13268026895821" stroke="#805a46" stroke-width="2" fill="none"></path></g></g><g><g transform="translate(62.46023284211128 844.8458711542189) rotate(0 0.11485953475653332 -17.71908998861909)"><path d="M-0.12865042313933372 1.9154246412217617 C-0.4587957883736089 -13.773234346201207, 1.9937867862155692 -27.60125087878114, -0.412590142339468 -37.35360461845994 M0.3266615550965071 0.2799260634928942 C0.0639765931531292 -13.475637758549274, -0.4264733986225474 -28.566855110200994, -0.41783651895821095 -36.60145038180053" stroke="#805a46" stroke-width="2" fill="none"></path></g></g><g><g transform="translate(363.5969515921113 841.4943086542189) rotate(0 0.8523979466941682 -18.146278264001012)"><path d="M1.9154246412217617 -0.5371435843408108 C-0.30751620747796554 -9.517781728452976, -0.7440582132683631 -23.351482144334298, 0.36123913154006004 -35.84072517976165 M0.2799260634928942 0.3110108654946089 C1.0074093447003543 -14.93836793199138, 0.2958563410148054 -29.994274512235137, 1.1133933681994677 -36.60356739349663" stroke="#805a46" stroke-width="2" fill="none"></path></g></g><g><g transform="translate(397.5969515921113 844.4943086542189) rotate(0 0.6684874929487705 -17.994175342842937)"><path d="M-0.5371435843408108 -0.45795971527695656 C1.920695706126935 -11.464626653496673, -0.49846580215198627 -20.87521416076838, 1.8741185702383518 -35.637339774519205 M0.3110108654946089 0.8054882902652025 C-0.32906884419913696 -10.203288905856171, -0.654109749330164 -19.53466760212643, 1.1112763565033674 -36.793838975951076" stroke="#805a46" stroke-width="2" fill="none"></path></g></g><g><g transform="translate(417.5969515921113 844.4943086542189) rotate(0 0.6839084009912995 -18.096929725259542)"><path d="M-0.45795971527695656 1.8265838660299778 C-1.2556164217222976 -11.660378437794717, -0.10078255352978882 -20.372129450152574, 2.077503975480795 -38.02044331654906 M0.8054882902652025 -0.2747406084090471 C-0.025615836539582243 -13.131899583204213, 0.9248525836511544 -24.066072244824902, 0.9210047740489244 -37.39339563436806" stroke="#805a46" stroke-width="2" fill="none"></path></g></g><g><g transform="translate(446.5969515921113 843.4943086542189) rotate(0 0.7402413603794002 -18.40771457646042)"><path d="M1.8265838660299778 -0.9702028669416904 C-0.4630273320309789 -14.7156957887295, 1.922624188562113 -27.82693831470242, -0.30559956654906273 -36.811520639806986 M-0.2747406084090471 -0.003908513113856316 C-0.7023581021739664 -11.426812100557582, 0.9087529248749342 -23.90739244273951, 0.321448115631938 -36.592854080721736" stroke="#805a46" stroke-width="2" fill="none"></path></g></g><g><g transform="translate(478.5969515921113 844.4943086542189) rotate(0 0.14857700453353573 -19.15705408062786)"><path d="M-0.9702028669416904 -0.662590142339468 C0.2653117826190282 -8.611417761662015, 2.049862331755503 -21.02438900051726, 0.9033231101930141 -36.90499162301421 M-0.003908513113856316 -0.667836518958211 C0.6443937104644283 -11.54268726500639, 0.5347803879512503 -24.737165978908596, 1.121989669278264 -37.65151801891625" stroke="#805a46" stroke-width="2" fill="none"></path></g></g><g><g transform="translate(501.5969515921113 844.4943086542189) rotate(0 0.0710078040137887 -18.777542619034648)"><path d="M-0.662590142339468 0.11123913154006004 C1.3512306781119696 -8.552866937103246, -0.7592119551164068 -20.108631468558748, 0.8098521269857883 -36.84282201901078 M-0.667836518958211 0.8633933681994677 C1.0593447034182464 -13.586187873392339, 0.36465366980344693 -27.642405396887046, 0.06332573108375072 -38.41847860626876" stroke="#805a46" stroke-width="2" fill="none"></path></g></g><g><g transform="translate(520.5969515921113 844.4943086542189) rotate(0 0.29797555742516124 -18.374436064623296)"><path d="M0.11123913154006004 1.6241185702383518 C2.107078767885032 -15.215858410725343, 1.030730200922626 -28.761493799044693, 0.8720217309892178 -35.853867169469595 M0.8633933681994677 0.8612763565033674 C0.7406005771697528 -10.137024021488179, 1.0097169571888662 -20.605288134453875, -0.7036348562687635 -38.372990699484944" stroke="#805a46" stroke-width="2" fill="none"></path></g></g><g><g transform="translate(537.5969515921113 845.4943086542189) rotate(0 0.6014148155227304 -18.09341049566865)"><path d="M1.6241185702383518 1.827503975480795 C-0.3686079216206417 -8.768844122932789, 0.8097162360774383 -18.22217368634796, 1.860976580530405 -38.014324966818094 M0.8612763565033674 0.6710047740489244 C0.3965543111372244 -10.35497875583169, 0.21333421376119077 -23.405413223068173, -0.6581469494849443 -36.62624233774841" stroke="#805a46" stroke-width="2" fill="none"></path></g></g><g><g transform="translate(562.1164828421113 844.8732149042189) rotate(0 0.7640113793313503 -18.700606330297887)"><path d="M1.827503975480795 -0.5555995665490627 C0.6992029500036006 -9.44043933857509, 0.7346191940205609 -18.38757620237855, -0.29948121681809425 -37.47266077622771 M0.6710047740489244 0.07144811563193798 C0.6068247799605161 -8.926241501476179, -1.1604956585604667 -18.385128223713547, 1.0886014122515917 -37.3360729534179" stroke="#805a46" stroke-width="2" fill="none"></path></g></g><g><g transform="translate(583.7961703421113 843.3419649042189) rotate(0 0.10943289768977138 -18.96426355931908)"><path d="M-0.5555995665490627 0.6533231101930141 C0.3320058738027728 -10.828093608081836, 1.4595208164916402 -23.44742751499085, 0.24218297377228737 -38.80051678791642 M0.07144811563193798 0.871989669278264 C-0.4127652759309421 -15.429455256641816, -1.0376531222946506 -28.11136187655939, 0.3787707965821028 -37.56972193531692" stroke="#805a46" stroke-width="2" fill="none"></path></g></g><g><g transform="translate(169.59695159211128 847.4943086542189) rotate(0 -0.10684168431907892 -18.739937528036535)"><path d="M0.6533231101930141 0.5598521269857883 C0.3749874586477381 -12.670149468284071, -0.7012140070315945 -28.57076362331485, -1.085673037916422 -35.738057013601065 M0.871989669278264 -0.18667426891624928 C-1.1084938375086495 -15.374537106970822, 0.78027433992429 -28.80383089810057, 0.14512181468307972 -38.03972718305886" stroke="#805a46" stroke-width="2" fill="none"></path></g></g><g><g transform="translate(227.59695159211128 845.4943086542189) rotate(0 0.7911289379605364 -18.520509601570666)"><path d="M0.5598521269857883 0.6220217309892178 C1.8128976349655568 -15.213108540400427, 0.2919478279009491 -30.662111031193348, 1.9767867363989353 -35.742291036993265 M-0.18667426891624928 -0.9536348562687635 C-0.8431397550175461 -12.916940588446307, 0.2855531104007241 -27.613782212539522, -0.3248834330588579 -37.66304093413055" stroke="#805a46" stroke-width="2" fill="none"></path></g></g><g><g transform="translate(262.5969515921113 845.4943086542189) rotate(0 0.5094589283689857 -17.515071167610586)"><path d="M0.6220217309892178 1.610976580530405 C-0.6038094526081841 -10.207197418970027, -1.321946268288375 -18.67127423392696, 1.9725527130067348 -36.12283420190215 M-0.9536348562687635 -0.9081469494849443 C0.5886980480311468 -11.377894891583859, -0.2779953466465668 -23.58868149506307, 0.05180281586945057 -36.641118915751576" stroke="#805a46" stroke-width="2" fill="none"></path></g></g><g><g transform="translate(346.5969515921113 848.4943086542189) rotate(0 0.35141481552273035 -18.302384166046977)"><path d="M1.610976580530405 -0.5494812168180943 C-0.02952434965343856 -13.799736102162424, 1.7882459518506222 -23.204795888321534, 1.592009548097849 -37.321947518736124 M-0.9081469494849443 0.8386014122515917 C0.295507761484987 -14.608842894288681, -0.3113467264240171 -29.208510689214744, 1.0737248342484236 -37.443369744345546" stroke="#805a46" stroke-width="2" fill="none"></path></g></g><g><g transform="translate(381.5969515921113 846.4943086542189) rotate(0 0.07662799954226784 -18.38217300362885)"><path d="M-0.5494812168180943 -0.007817026227712631 C-1.3701946211321774 -10.563418732358114, 1.7700292813783016 -23.236387668690586, 0.39289623126387596 -35.72086441144347 M0.8386014122515917 0.12877079658210278 C0.32273276680680285 -11.112693958975871, 0.2997469112702675 -20.254166584959318, 0.27147400565445423 -36.8931168038398" stroke="#805a46" stroke-width="2" fill="none"></path></g></g><g><g transform="translate(466.5969515921113 849.4943086542189) rotate(0 0.9930811561644077 -18.97153523657471)"><path d="M-0.007817026227712631 -1.335673037916422 C1.507787078663896 -10.681410908503022, 1.2057851620001747 -24.665717863276658, 1.993979338556528 -37.8381922878325 M0.12877079658210278 -0.10487818531692028 C-0.18348846882065117 -7.866968724194885, 1.2662789270799113 -15.313972570943589, 0.8217269461601973 -37.63342565111816" stroke="#805a46" stroke-width="2" fill="none"></path></g></g><g><g transform="translate(617.6911396599799 328.9968538278124) rotate(90.49431856359851 0.45093371344671596 -18.333980264142156)"><path d="M1.2283694110810757 -1.3801577053964138 C-1.7633110446291538 -9.779663215557084, -0.969769827732307 -17.765369740380848, 1.5766764245927334 -37.46715223416686 M-0.15601771883666515 0.8686940353363752 C0.5462280393631227 -13.105238009285678, 0.7805353545171237 -23.70143686944066, 0.19315278716385365 -37.53665456362069" stroke="#805a46" stroke-width="2" fill="none"></path></g></g><g><g transform="translate(620.8321536924932 570.3463421056904) rotate(90.49431856359851 -0.2557318350300193 -18.56718978099525)"><path d="M-1.3801577053964138 -1.5925971902906895 C0.1148110667387664 -14.45182029900527, 1.6565082085790346 -25.851685696865683, 0.00941026583313942 -36.91721421852708 M0.8686940353363752 0.7297797221690416 C-0.8472948543661915 -13.021093461033525, 0.8627354461321375 -27.863047473338884, -0.06009206362068653 -37.86415928415954" stroke="#805a46" stroke-width="2" fill="none"></path></g></g><g><g transform="translate(621.1962723626157 355.87311769601354) rotate(90.49431856359851 -0.3678418842661131 -19.14549846854061)"><path d="M-1.5925971902906895 -0.25897252187132835 C-1.0423525410117145 -6.265825044552768, 1.197281184618405 -15.092636254356186, 0.8171607814729214 -36.04676127061248 M0.7297797221690416 -0.8030311781913042 C1.0186913535773783 -10.824821075554503, 0.15808864462487693 -23.524586408849867, -0.12978428415954113 -38.03202441520989" stroke="#805a46" stroke-width="2" fill="none"></path></g></g><g><g transform="translate(620.0215322863305 384.8929487141419) rotate(90.49431856359851 0.43252565059810877 -18.480368284508586)"><path d="M-0.25897252187132835 -0.8626032508909702 C1.627367823529712 -12.211819356591006, 0.4369377150253422 -26.51182152738242, 1.6680824793875217 -37.205481234937906 M-0.8030311781913042 0.8819975275546312 C0.6482972836289991 -10.713606841296862, -0.25506656256686255 -21.691479091775552, -0.3171806652098894 -37.8427340965718" stroke="#805a46" stroke-width="2" fill="none"></path></g></g><g><g transform="translate(619.0795999490683 424.41025343259025) rotate(90.49431856359851 0.050316749416992934 -18.249201472848654)"><path d="M-0.8626032508909702 1.2784762419760227 C1.6827564777299266 -8.656068254362763, 0.9809888632926596 -15.889760776656622, 0.5093625150620937 -37.77687918767333 M0.8819975275546312 0.9026525896042585 C-0.23354069458255255 -14.563804990718635, -0.45976041502253795 -29.553176597351268, -0.1278903465718031 -36.6097631175071" stroke="#805a46" stroke-width="2" fill="none"></path></g></g><g><g transform="translate(617.4673198289163 448.1374694897381) rotate(90.49431856359851 0.6082204021513462 -18.270478130318224)"><path d="M1.2784762419760227 1.3266764245927334 C0.1012958762917697 -7.68789384491698, 1.5767793749675185 -16.251824991781323, -0.06203543767333031 -35.72745567932725 M0.9026525896042585 -0.056847212836146355 C0.3222880556066957 -14.355550729276585, -0.07983730292828112 -28.327218242987005, 1.1050806324929 -37.86763268522918" stroke="#805a46" stroke-width="2" fill="none"></path></g></g><g><g transform="translate(617.313719142363 487.00150789145744) rotate(90.49431856359851 0.7455080335354296 -18.245922341011465)"><path d="M1.3266764245927334 -0.0023084841668605804 C0.800510105013891 -9.33785048754231, 0.5644746820796718 -21.822303276230524, 1.9873880706727505 -36.00528430566192 M-0.056847212836146355 -0.07181081362068653 C-0.6552990591915295 -8.800346659952337, -0.5984809010585741 -15.608994725517988, -0.15278893522918224 -36.48953619785607" stroke="#805a46" stroke-width="2" fill="none"></path></g></g><g><g transform="translate(617.7484826776558 515.0375005610035) rotate(90.49431856359851 0.7202303771763354 -19.251872662454844)"><path d="M-0.0023084841668605804 0.5671607814729214 C1.2428103755327902 -9.365884154825036, -0.42309008216419897 -17.51144692357077, 1.7095594443380833 -39.07090610638261 M-0.07181081362068653 -0.37978428415954113 C-0.8083081093215878 -14.92159130931177, 0.7110031265700674 -29.490332978741208, 1.2253075521439314 -38.39399421028793" stroke="#805a46" stroke-width="2" fill="none"></path></g></g><g><g transform="translate(620.144837454382 541.0337567951285) rotate(90.49431856359851 -0.3944507874548435 -17.53431491460651)"><path d="M0.5671607814729214 1.4180824793875217 C0.10182484331591696 -13.946381309254066, 1.670831351951274 -25.809135184428598, -1.3560623563826084 -35.70084869489074 M-0.37978428415954113 -0.5671806652098894 C-0.25902631236640444 -13.765966788478691, -0.18635858628367713 -28.2669668168333, -0.6791504602879286 -36.486712308600545" stroke="#805a46" stroke-width="2" fill="none"></path></g></g><g><g transform="translate(619.9769642298825 302.5904071806186) rotate(90.49431856359851 0.7234071949496865 -18.9113367209211)"><path d="M1.4180824793875217 0.25936251506209373 C-0.22001954737286722 -11.987960253012863, 1.6431587899459554 -29.056050052776992, 2.0139950551092625 -35.65953857079148 M-0.5671806652098894 -0.3778903465718031 C0.9555632612905902 -11.428315404865865, 1.149369000620718 -22.981152860271692, 1.228131441399455 -38.08203595690429" stroke="#805a46" stroke-width="2" fill="none"></path></g></g><g><g transform="translate(620.289012154225 603.4545205474792) rotate(90.49431856359851 0.8001820504724719 -18.54739129729569)"><path d="M0.25936251506209373 -0.3120354376733303 C1.7061162643256103 -9.777341933830613, -1.5623630187818345 -20.708035098128896, 2.055305179208517 -37.57853817567229 M-0.3778903465718031 0.8550806324928999 C-0.18729861692227134 -9.993689530007106, -0.6404554123215348 -20.961280674565643, -0.3671922069042921 -37.94986322708428" stroke="#805a46" stroke-width="2" fill="none"></path></g></g><g><g transform="translate(616.9118740034551 636.5184224619113) rotate(90.49431856359851 0.39157036937331213 -18.051317007280886)"><path d="M-0.3120354376733303 1.7373880706727505 C1.2760077615321643 -13.908269187476982, 1.662532882071755 -22.7987842798364, 0.1363055743277073 -37.60846537724137 M0.8550806324928999 -0.40278893522918224 C1.2533062950410385 -10.744802972947221, 1.3216355771925739 -20.249441958089307, -0.23501947708427906 -37.84002208523452" stroke="#805a46" stroke-width="2" fill="none"></path></g></g><g><g transform="translate(616.8559333083504 657.0642918061233) rotate(90.49431856359851 0.6042259220980668 -18.3824264369905)"><path d="M1.7373880706727505 1.4595594443380833 C-1.5619212058973062 -12.131479951336951, 1.9421723606861634 -27.90503448286181, 0.10637837275862694 -38.22441231831908 M-0.40278893522918224 0.9753075521439314 C-0.7267539490287163 -8.13852588517082, -0.3539752122753271 -18.7161964286436, -0.12517833523452282 -37.69826385565102" stroke="#805a46" stroke-width="2" fill="none"></path></g></g><g><g transform="translate(619.0831763253559 687.370560551833) rotate(90.49431856359851 0.5092708074041639 -19.764177770353854)"><path d="M1.4595594443380833 -1.6060623563826084 C1.9006888811320095 -9.922168485950245, 0.10124143178873057 -23.596397222470554, -0.5095685683190823 -38.59920508041978 M0.9753075521439314 -0.9291504602879286 C0.7233295598351834 -10.439878080671626, -0.6742686173128458 -20.021557055107266, 0.016579894348978996 -36.88676363043487" stroke="#805a46" stroke-width="2" fill="none"></path></g></g><g><g transform="translate(617.1773430546314 716.9134001978769) rotate(90.49431856359851 -0.38899111840873957 -18.228314694017172)"><path d="M-1.6060623563826084 1.7639950551092625 C1.5509498732332576 -10.770454054133008, -0.3268773761875491 -22.071263375935093, -0.8843613304197788 -38.220624443143606 M-0.9291504602879286 0.9781314413994551 C-0.36991094586606776 -14.930457099964405, -0.03152005838397598 -29.121857082530916, 0.8280801195651293 -36.95939222164452" stroke="#805a46" stroke-width="2" fill="none"></path></g></g><g><g transform="translate(615.2732004884081 740.1557880952098) rotate(90.49431856359851 0.5844424485312629 -17.504406661726534)"><path d="M1.7639950551092625 1.805305179208517 C-0.2903879074186989 -14.635615804339322, -0.8395446991820791 -30.120357262561157, -0.5057806931436062 -35.7546824850142 M0.9781314413994551 -0.6171922069042921 C-0.7854866509576823 -10.103266131824785, -0.4689570029051538 -18.880418349766114, 0.7554515283554792 -36.814118502661586" stroke="#805a46" stroke-width="2" fill="none"></path></g></g><g><g transform="translate(616.7270790643447 760.962490447459) rotate(90.49431856359851 0.6714845290407538 -19.21006195154041)"><path d="M1.805305179208517 -0.11369442567229271 C0.2504772419860092 -14.735335013436126, -0.6470179681381705 -28.705108589558808, 1.9601612649857998 -38.270421620458364 M-0.6171922069042921 -0.48501947708427906 C0.07230912171835369 -15.129293064181258, 1.1249502653216041 -29.2838490601015, 0.9007252473384142 -38.30642947740853" stroke="#805a46" stroke-width="2" fill="none"></path></g></g><g><g transform="translate(616.4288157235126 776.4851425686415) rotate(90.49431856359851 -0.4804360353979291 -18.896556557156146)"><path d="M-0.11369442567229271 -0.14362162724137306 C-1.0350833433510707 -9.367527325162227, -0.9763712476303772 -14.753914093025088, -0.5555778704583645 -35.51422864571214 M-0.48501947708427906 -0.3751783352345228 C-0.5481042833481478 -7.178782343424828, 0.24253858915115423 -14.864542659158761, -0.5915857274085283 -37.64949148707092" stroke="#805a46" stroke-width="2" fill="none"></path></g></g><g><g transform="translate(616.3444164747375 803.2622588415761) rotate(90.49431856359851 0.8834210517122756 -19.77828238811344)"><path d="M-0.14362162724137306 -0.7595685683190823 C-1.3754887745314772 -15.299481655883573, 1.5660837590629673 -29.89312191397039, 2.2006151042878628 -39.32314467057586 M-0.3751783352345228 -0.233420105651021 C0.9087635015539854 -14.397343209851096, 1.0808619153622567 -30.64838775251439, 0.06535226292908192 -36.595759900286794" stroke="#805a46" stroke-width="2" fill="none"></path></g></g><g><g transform="translate(617.718218038435 822.7086467653385) rotate(90.49431856359851 -0.24460853543132544 -18.670127062126994)"><path d="M-0.7595685683190823 -1.1343613304197788 C-0.6369166589382076 -12.910886155985791, -0.5891475215128594 -27.29165926468937, -1.6083009205758572 -35.50858086720109 M-0.233420105651021 0.5780801195651293 C0.7467335124295642 -8.275488972284803, -0.5407335485070507 -18.038014122155438, 1.1190838497132063 -37.91833424381912" stroke="#805a46" stroke-width="2" fill="none"></path></g></g><g><g transform="translate(616.7789345364315 409.69999257690426) rotate(90.49431856359851 0.5359507761895657 -19.096888317726552)"><path d="M-1.1343613304197788 -0.7557806931436062 C1.81064389378349 -11.831104340095047, 2.124676552764649 -23.91030332055962, 2.20626288279891 -38.699228163808584 M0.5780801195651293 0.5054515283554792 C0.8541597374907723 -10.26333740967748, 0.08166126615433311 -17.975003065088824, -0.20349049381911755 -37.90447089262307" stroke="#805a46" stroke-width="2" fill="none"></path></g></g><g><g transform="translate(618.4193989476421 466.1063173575128) rotate(90.49431856359851 -0.3319882985741742 -18.36236071959138)"><path d="M-0.7557806931436062 1.7101612649857998 C-0.5900875521514536 -9.018381977863175, -1.5696058726094635 -19.983149233166188, -0.9843844138085842 -38.43488270416856 M0.5054515283554792 0.6507252473384142 C-0.6885147079261514 -10.019946291575181, 1.0877754108147202 -20.122642402528733, -0.1896271426230669 -36.706645308062434" stroke="#805a46" stroke-width="2" fill="none"></path></g></g><g><g transform="translate(618.2928288829639 503.2271900836938) rotate(90.49431856359851 0.6322899905406985 -19.510389145463705)"><path d="M1.7101612649857998 -0.8055778704583645 C2.22861384718497 -11.67395343323515, 2.299767018592029 -20.8666341649936, -0.7200389541685581 -38.215200420469046 M0.6507252473384142 -0.8415857274085283 C-0.3320600532570825 -9.497128125475285, -0.5317383126465575 -21.170787464179163, 1.0081984419375658 -36.4678529817611" stroke="#805a46" stroke-width="2" fill="none"></path></g></g><g><g transform="translate(613.6643187235568 585.0546291315102) rotate(90.49431856359851 0.021681720917740677 -17.99053442850709)"><path d="M-0.8055778704583645 1.9506151042878628 C-1.6559044093166448 -7.160394443771365, -0.9711674191796191 -19.201215905727878, -0.5003566704690456 -37.93168396130204 M-0.8415857274085283 -0.18464773707091808 C0.7691692273719674 -13.860338567386354, -0.4500897619751776 -26.05387089207856, 1.246990768238902 -37.72347008995712" stroke="#805a46" stroke-width="2" fill="none"></path></g></g><g><g transform="translate(614.9814294112989 621.214913281281) rotate(90.49431856359851 0.779360822723902 -18.373907985165715)"><path d="M1.9506151042878628 -1.8583009205758572 C1.7014610012346385 -11.057070287575918, -1.1592880943971249 -20.39673539034179, -0.216840211302042 -36.30868351086974 M-0.18464773707091808 0.8690838497132063 C-0.6096474027673684 -13.570642556608218, 0.6896778211982019 -25.267144024049923, -0.008626339957118034 -37.61689982004464" stroke="#805a46" stroke-width="2" fill="none"></path></g></g><g><g transform="translate(611.5920051648741 704.5043517349402) rotate(90.49431856359851 -0.2260703407227993 -17.703568995930254)"><path d="M-1.8583009205758572 1.9562628827989101 C-0.9871031527703599 -15.415476577048684, -0.4066983936184988 -29.355277188181937, 1.4061602391302586 -36.45394069328904 M0.8690838497132063 -0.45349049381911755 C-0.033060233643700476 -12.918725035291136, 1.4948258084017287 -27.6129349137572, 0.09794392995536327 -37.36340087465942" stroke="#805a46" stroke-width="2" fill="none"></path></g></g><g><g transform="translate(34.48770248834637 329.2478855090527) rotate(90.49431856359851 0.3681544652208686 -18.189195319078863)"><path d="M0.050193365663290024 -1.116046067327261 C-0.8624899205397378 -11.699299983561941, 0.8935629922785302 -21.96205418756319, -0.5118580497801304 -37.11476468667388 M0.6200562734156847 0.7363740485161543 C-0.6119331494828657 -9.668362904553797, 0.7807882538607372 -18.04206477983302, 1.2481669802218676 -36.94654146023095" stroke="#805a46" stroke-width="2" fill="none"></path></g></g><g><g transform="translate(37.62871652085971 570.5973737869307) rotate(90.49431856359851 -0.2053238103041508 -19.653106630779803)"><path d="M-1.116046067327261 -0.6597159542143345 C-1.263468549670215 -12.952511444358754, -0.9721723133971681 -28.71875751521417, 0.3617978133261204 -38.8179091848433 M0.7363740485161543 -0.4883040767163038 C-1.0502140017300552 -12.219846210565523, -0.6784104622720042 -25.133625785940318, 0.5300210397690535 -36.51454555802047" stroke="#805a46" stroke-width="2" fill="none"></path></g></g><g><g transform="translate(37.99283519098219 356.12414937725396) rotate(90.49431856359851 0.06814762856811285 -18.876968564465642)"><path d="M-0.6597159542143345 -1.1488258801400661 C1.0994748168443766 -13.289465235562966, -0.6053855008161191 -24.50644700574776, -1.0835341848433018 -36.49348032101989 M-0.4883040767163038 -0.9260871727019548 C0.6973343936779566 -13.081110552330065, 0.9329658736993589 -24.525341046763643, 1.2198294419795275 -36.82784995622933" stroke="#805a46" stroke-width="2" fill="none"></path></g></g><g><g transform="translate(36.81809511469703 385.1439803953821) rotate(90.49431856359851 0.036268774420022964 -18.055742443539202)"><path d="M-1.1488258801400661 1.0259397588670254 C-0.5772098550962255 -12.094510859930452, 0.7103963551187917 -23.999664450086712, 1.221363428980112 -36.78076345100999 M-0.9260871727019548 0.8460865039378405 C-0.743748396359806 -12.563096524558933, 0.42342371674771134 -26.153918327773862, 0.8869937937706709 -37.13742464594543" stroke="#805a46" stroke-width="2" fill="none"></path></g></g><g><g transform="translate(35.87616277743484 424.66128511383056) rotate(90.49431856359851 0.38941287609037545 -18.58782017417252)"><path d="M1.0259397588670254 -0.8618997298181057 C-0.5772278499016101 -8.797313452812814, -1.0878545608063723 -17.324857635647934, 0.9340802989900112 -36.22473120316863 M0.8460865039378405 -0.5583684165030718 C1.2745186908014148 -13.477649484220455, 1.3395905037719786 -27.357224972140102, 0.5774191040545702 -36.61727193184197" stroke="#805a46" stroke-width="2" fill="none"></path></g></g><g><g transform="translate(34.263882657283034 448.38850117097843) rotate(90.49431856359851 0.31410640850663185 -18.663721231743693)"><path d="M-0.8618997298181057 -0.7618580497801304 C0.6320355243754603 -11.338461977340776, 1.3200734406017727 -19.324492861306354, 1.4901125468313694 -35.99209565296769 M-0.5583684165030718 0.9981669802218676 C0.9280518000927259 -8.442315305613887, 1.1095357021764358 -18.494755174872413, 1.0975718181580305 -38.325609443709254" stroke="#805a46" stroke-width="2" fill="none"></path></g></g><g><g transform="translate(34.11028197072949 487.25253957269786) rotate(90.49431856359851 0.4148090818427477 -18.961574806831777)"><path d="M-0.7618580497801304 0.3500790633261204 C-1.4650778721593816 -8.114983216587424, 0.6131762881721807 -16.933658118965976, 1.7227480970323086 -38.44145190343261 M0.9981669802218676 0.5183022897690535 C0.704692275971829 -7.1314922877722715, 0.11412975872932296 -14.690796265969112, -0.6107656937092543 -37.48564478941262" stroke="#805a46" stroke-width="2" fill="none"></path></g></g><g><g transform="translate(34.54504550602235 515.2885322422438) rotate(90.49431856359851 0.14203081876780743 -19.17359432671219)"><path d="M0.3500790633261204 -1.3335341848433018 C1.2206423694949626 -12.476254141591053, 1.5772157343320576 -24.848873106692047, -0.7266081534326077 -39.31701809540391 M0.5183022897690535 0.9698294419795275 C0.942337811161342 -14.08437930529748, 1.2490679981471475 -29.6818670949628, 0.22919896058738232 -37.551817236468196" stroke="#805a46" stroke-width="2" fill="none"></path></g></g><g><g transform="translate(36.94140028274853 541.2847884763688) rotate(90.49431856359851 -0.3161724517121911 -18.395322813652456)"><path d="M-1.3335341848433018 0.9713634289801121 C0.8910210163407464 -8.385231241707663, 1.7439150677603175 -20.226858131681514, -1.6021743454039097 -35.77267074212432 M0.9698294419795275 0.6369937937706709 C0.01449819413777731 -8.301258514644141, -1.112645814038624 -18.31716594929254, 0.16302651353180408 -37.762009056285024" stroke="#805a46" stroke-width="2" fill="none"></path></g></g><g><g transform="translate(36.77352705824899 302.8414388618588) rotate(90.49431856359851 0.9475038507953286 -18.948750142008066)"><path d="M0.9713634289801121 0.6840802989900112 C1.2400110341708206 -8.337893470502022, -0.9112328917154082 -21.475124398203626, 1.942173007875681 -38.581580583006144 M0.6369937937706709 0.3274191040545702 C0.7533448496489291 -15.842260387356363, -0.015073833416172355 -30.047538300157466, -0.04716530628502369 -37.931343434378505" stroke="#805a46" stroke-width="2" fill="none"></path></g></g><g><g transform="translate(37.08557498259154 603.7055522287195) rotate(90.49431856359851 -0.018298025862861778 -18.315497918985784)"><path d="M0.6840802989900112 1.2401125468313694 C1.8019273346760747 -12.873058353101806, -1.443619119468567 -22.09951318717649, -0.8667368330061436 -35.468509789556265 M0.3274191040545702 0.8475718181580305 C-1.1361532215441548 -13.203658079043526, -0.27440345705887015 -26.661286901062415, -0.21649968437850475 -37.87110838480294" stroke="#805a46" stroke-width="2" fill="none"></path></g></g><g><g transform="translate(33.70843683182159 636.7694541431516) rotate(90.49431856359851 1.0140977951717787 -18.39614111278206)"><path d="M1.2401125468313694 1.4727480970323086 C-1.1002372261991695 -10.594450077255752, 1.6268747577985778 -18.60043319633609, 2.246333960443735 -36.42823917046189 M0.8475718181580305 -0.8607656937092543 C-0.1602040328965086 -14.960696010019602, -0.3373225637194264 -30.21312618372118, -0.1562646348029375 -38.26503032259643" stroke="#805a46" stroke-width="2" fill="none"></path></g></g><g><g transform="translate(33.65249613671688 657.3153234873636) rotate(90.49431856359851 0.30599120166152716 -18.645845295861363)"><path d="M1.4727480970323086 -0.9766081534326077 C-1.8931771101122286 -11.368429212368067, -1.070597554852211 -24.12332033936022, 1.286604579538107 -35.525184866040945 M-0.8607656937092543 -0.020801039412617683 C-0.11871569736562376 -13.92522465616421, -0.40731705043166583 -27.660264405015916, -0.5501865725964308 -37.27088955231011" stroke="#805a46" stroke-width="2" fill="none"></path></g></g><g><g transform="translate(35.879739153722426 687.6215922330734) rotate(90.49431856359851 0.6065253652632236 -18.59437027387321)"><path d="M-0.9766081534326077 -1.8521743454039097 C1.543420897615797 -13.639478968833137, 1.9311328539212265 -24.00703875699459, 2.189658883959055 -36.19085616245866 M-0.020801039412617683 -0.08697348646819592 C-0.5315212860255998 -12.930471452561179, -0.5574351369421493 -25.730282023196054, 0.44395419768989086 -37.101767061278224" stroke="#805a46" stroke-width="2" fill="none"></path></g></g><g><g transform="translate(33.97390588299788 717.1644318791173) rotate(90.49431856359851 -0.16409337893128395 -17.848914726637304)"><path d="M-1.8521743454039097 1.692173007875681 C-1.3021168128628777 -11.564929544337065, 0.9417260065167647 -25.184088885794335, 1.5239875875413418 -36.81000554189086 M-0.08697348646819592 -0.2971653062850237 C-0.047825866722778276 -14.821080330623811, -0.28532345948675353 -28.635729196550386, 0.613076688721776 -37.39000246115029" stroke="#805a46" stroke-width="2" fill="none"></path></g></g><g><g transform="translate(32.06976331677481 740.40681977645) rotate(90.49431856359851 0.8865834314967742 -18.63374468497932)"><path d="M1.692173007875681 -1.1167368330061436 C2.2726856710232823 -12.959347194451402, 2.309419945751506 -26.72023117836943, 0.9048382081091404 -35.76970011368394 M-0.2971653062850237 -0.46649968437850475 C-0.3449907002313557 -8.814577041862504, 0.3087089899187413 -15.665921683526541, 0.3248412888497114 -36.800989685580134" stroke="#805a46" stroke-width="2" fill="none"></path></g></g><g><g transform="translate(33.523641892711225 761.2135221286994) rotate(90.49431856359851 0.4142034016549587 -18.595020588487387)"><path d="M-1.1167368330061436 1.9963339604437351 C1.4463540898617793 -7.472485863634359, 1.7465294959471067 -18.167336070817843, 1.945143636316061 -39.18637513741851 M-0.46649968437850475 -0.4062646348029375 C-0.6931221177725092 -10.966825244901266, 0.5446211175603821 -22.247460509598316, 0.9138540644198656 -36.565300138667226" stroke="#805a46" stroke-width="2" fill="none"></path></g></g><g><g transform="translate(33.22537855187886 776.736174249882) rotate(90.49431856359851 0.2624012865126133 -18.279288263060153)"><path d="M1.9963339604437351 1.036604579538107 C1.6745217179513565 -6.494498494001601, 0.44154886278389316 -13.843224447811082, -1.4715313874185085 -37.506445828825235 M-0.4062646348029375 -0.8001865725964308 C0.37811237820707905 -10.54936537897491, 0.3318251322051947 -21.162196320184453, 1.1495436113327742 -37.59518110565841" stroke="#805a46" stroke-width="2" fill="none"></path></g></g><g><g transform="translate(33.14097930310402 803.5132905228165) rotate(90.49431856359851 0.3669640114783306 -17.84956591948867)"><path d="M1.036604579538107 1.939658883959055 C1.5793316049320127 -13.75696020124291, 2.0966398163051783 -30.542632788672055, 0.20839792117476463 -37.63879072293639 M-0.8001865725964308 0.19395419768989086 C0.6054209339113004 -10.050270997774351, 0.9737691769522644 -19.35169662350236, 0.11966264434158802 -36.97933873720467" stroke="#805a46" stroke-width="2" fill="none"></path></g></g><g><g transform="translate(34.51478086680174 822.9596784465789) rotate(90.49431856359851 0.606231878275139 -18.392593387514353)"><path d="M1.939658883959055 1.2739875875413418 C0.3419172981923475 -7.453686696486111, -1.9734115077478782 -18.33796698870516, 0.07605302706360817 -38.05917436257005 M0.19395419768989086 0.363076688721776 C0.2903852073806774 -8.825864815682143, 1.1784250377542775 -19.111775582293923, 0.7355050127953291 -37.65237110666931" stroke="#805a46" stroke-width="2" fill="none"></path></g></g><g><g transform="translate(33.57549736479825 409.95102425814446) rotate(90.49431856359851 0.4860580684228921 -18.871502455323935)"><path d="M1.2739875875413418 0.6548382081091404 C1.6009166678069597 -16.703026081065616, -0.03587487282879004 -30.134511786625662, -0.3443306125700474 -38.39784311875701 M0.363076688721776 0.07484128884971142 C1.0284860976815253 -8.818330292757166, 0.29913806173317425 -18.949757909890327, 0.062472643330693245 -37.597877534106374" stroke="#805a46" stroke-width="2" fill="none"></path></g></g><g><g transform="translate(35.21596177600861 466.3573490387531) rotate(90.49431856359851 -0.11652144200724024 -18.291114691644907)"><path d="M0.6548382081091404 1.695143636316061 C-1.996918915253409 -13.224459118456144, -0.36137694352706606 -26.958452207347438, -0.6829993687570095 -38.277373019605875 M0.07484128884971142 0.6638540644198656 C0.8818743099067796 -8.372811681062887, 0.5228310470544238 -16.67156831575645, 0.11696621589362621 -37.13863634876907" stroke="#805a46" stroke-width="2" fill="none"></path></g></g><g><g transform="translate(35.08939171133045 503.4782217649341) rotate(90.49431856359851 0.5638436265231235 -19.082836641930044)"><path d="M1.695143636316061 -1.7215313874185085 C-0.1810050723091263 -15.047669496487798, -0.6344878700044501 -30.679625868099684, -0.562529269605875 -39.06521689519286 M0.6638540644198656 0.8995436113327742 C-0.18651461483845197 -11.480781586537633, -0.16385576090709947 -24.065419879550173, 0.5762074012309313 -37.107378931716084" stroke="#805a46" stroke-width="2" fill="none"></path></g></g><g><g transform="translate(30.460881551923308 585.3056608127505) rotate(90.49431856359851 -0.4109938880428672 -19.16110122296959)"><path d="M-1.7215313874185085 -0.04160207882523537 C-0.20568918383381968 -14.222389962449233, -0.8738167348101706 -28.066529039818853, -1.3503731451928616 -37.07693535462022 M0.8995436113327742 -0.13033735565841198 C0.5415427580853429 -12.78890125805323, 0.007080878401684448 -24.874880766375867, 0.6074648182839155 -38.28060036711395" stroke="#805a46" stroke-width="2" fill="none"></path></g></g><g><g transform="translate(31.777992239665423 621.4659449625213) rotate(90.49431856359851 0.017105170758554777 -18.183501722291112)"><path d="M-0.04160207882523537 -0.17394697293639183 C-0.8286865923106235 -13.396971136939683, -0.9636997717450868 -26.530468595792485, 0.6379083953797817 -36.73869037255645 M-0.13033735565841198 0.4855050127953291 C-0.35936821241099093 -11.655127487415013, 0.2312375777104899 -22.68447372930503, -0.5657566171139479 -36.85250845737755" stroke="#805a46" stroke-width="2" fill="none"></path></g></g><g><g transform="translate(28.3885679932406 704.7553834161804) rotate(90.49431856359851 0.23311956006500623 -18.80773046426475)"><path d="M-0.17394697293639183 -0.5943306125700474 C-0.514325551101283 -15.227344965426749, -1.0855100320831843 -28.441774998860495, 0.976153377443552 -37.31516117230058 M0.4855050127953291 -0.18752735666930676 C-0.3784500409448083 -13.400038760009194, 0.2036449130559777 -28.268574782983343, 0.862335292622447 -37.427933571860194" stroke="#805a46" stroke-width="2" fill="none"></path></g></g><g><g transform="translate(615.0114253025674 96.48189611122018) rotate(90.49431856359851 0.688155988022686 -18.8619005093351)"><path d="M1.7633063830435276 0.5624158941209316 C0.22628236599099183 -11.84621835389131, 0.8704297329748079 -24.68852944830811, 1.4359859265387058 -36.73818380013108 M0.2678100746124983 -0.5398883800953627 C-0.9419883872796344 -12.147152070187003, -0.3195303435385722 -25.672731447304542, 0.845661548897624 -38.28621691279113" stroke="#805a46" stroke-width="2" fill="none"></path></g></g><g><g transform="translate(618.5165580052033 123.35815997942143) rotate(90.49431856359851 0.18172566736552653 -18.795579864643514)"><path d="M0.5624158941209316 0.37762511149048805 C0.6362450011661713 -12.628035687359953, 0.07379667694964154 -25.948749280721824, 0.9766599498689175 -36.86240362748504 M-0.5398883800953627 -0.9519955832511187 C0.24355762476399834 -12.377423746827553, -0.8342129504185141 -23.334380337487964, -0.5713731627911329 -37.968784840777516" stroke="#805a46" stroke-width="2" fill="none"></path></g></g><g><g transform="translate(617.3418179289181 152.37799099754955) rotate(90.49431856359851 -0.03616649484729351 -18.43173995707184)"><path d="M0.37762511149048805 0.34175675734877586 C0.6715137922537542 -9.51175830224951, 0.9784555361473031 -17.67371722308366, 0.8524401225149632 -37.077689830213785 M-0.9519955832511187 0.22120088525116444 C-0.43356689203712445 -12.749339362823378, 0.6529984729066928 -24.448583381530774, -0.25394109077751637 -37.20523667149246" stroke="#805a46" stroke-width="2" fill="none"></path></g></g><g><g transform="translate(616.3998855916559 191.89529571599803) rotate(90.49431856359851 0.1608155421331503 -18.515561564825475)"><path d="M0.34175675734877586 0.9404339827597141 C-0.3195309940301377 -13.357039136055828, 0.8153884914662194 -28.483137971284744, 0.6371539197862148 -37.157981749624014 M0.22120088525116444 -0.4120680410414934 C-0.6524455240362295 -11.644757847147558, -0.4557143210333743 -24.987159871826005, 0.5096070785075426 -37.971557112410665" stroke="#805a46" stroke-width="2" fill="none"></path></g></g><g><g transform="translate(614.7876054715041 215.6225117731459) rotate(90.49431856359851 0.30021844910459095 -18.668389440514147)"><path d="M0.9404339827597141 -0.3112182058393955 C1.1972777962248802 -11.566761550865632, 0.6957621908776491 -24.199261885736195, 0.5568620003759861 -36.929223600775 M-0.4120680410414934 -0.9364091139286757 C1.0138279971671726 -10.038695909732924, -0.024271852010351758 -18.174485413162913, -0.25671336241066456 -37.0255606751889" stroke="#805a46" stroke-width="2" fill="none"></path></g></g><g><g transform="translate(618.6886922849505 257.62326892486533) rotate(90.49431856359851 -0.07539448235183954 -18.67931729182601)"><path d="M-0.3112182058393955 1.1859859265387058 C0.7423609461896559 -11.34557183486686, 0.4825752300005843 -23.58798637190921, 0.7856201492249966 -38.544620510190725 M-0.9364091139286757 0.595661548897624 C-0.8530456184053764 -8.175727467955586, 0.2791347333120211 -15.851316286869405, 0.689283074811101 -36.83153954334557" stroke="#805a46" stroke-width="2" fill="none"></path></g></g><g><g transform="translate(619.1234558202439 285.6592615944113) rotate(90.49431856359851 0.17810458317399025 -19.32108748331666)"><path d="M1.1859859265387058 0.7266599498689175 C0.5055460208754085 -11.492103358185416, 0.2892398582032911 -23.22328342947556, -0.8297767601907253 -39.36883491650224 M0.595661548897624 -0.8213731627911329 C-0.2690304209263559 -11.806230684037292, -0.19127267042822493 -23.69473347306339, 0.8833042066544294 -37.23748433403671" stroke="#805a46" stroke-width="2" fill="none"></path></g></g><g><g transform="translate(617.29724987247 70.07544946402629) rotate(90.49431856359851 -0.4636656083166599 -18.210000928491354)"><path d="M0.7266599498689175 0.6024401225149632 C0.5322080518403527 -12.695734218096334, 0.7674297060636308 -27.083486714727194, -1.6539911665022373 -37.02244197949767 M-0.8213731627911329 -0.5039410907775164 C0.6751295888756431 -10.203849164084097, 0.9195038841531642 -18.75947824282019, 0.4773594159632921 -36.598475785925984" stroke="#805a46" stroke-width="2" fill="none"></path></g></g><g><g transform="translate(614.0992201790193 177.18503486031193) rotate(90.49431856359851 0.2995735575947265 -18.950912956148386)"><path d="M0.6024401225149632 0.38715391978621483 C0.15580788566563575 -10.121754228015925, -1.1597211024740681 -23.217831596046743, 0.6924017705023289 -38.28897983208299 M-0.5039410907775164 0.2596070785075426 C-0.6782872588322062 -7.289874503340544, 0.513320082384671 -15.233009173246975, 1.1163679640740156 -37.016849933192134" stroke="#805a46" stroke-width="2" fill="none"></path></g></g><g><g transform="translate(619.7943720902301 236.7280783909206) rotate(90.49431856359851 -0.11922517580217118 -19.515399988740683)"><path d="M0.38715391978621483 0.3068620003759861 C0.48932396590062127 -14.54162180671745, -1.8604625257448788 -26.480535272397976, -0.5741360820829868 -39.33766197785735 M0.2596070785075426 -0.5067133624106646 C0.8369007855776727 -12.836525751351873, 0.7148686654523044 -26.074551804665536, 0.6979938168078661 -38.355312617495656" stroke="#805a46" stroke-width="2" fill="none"></path></g></g><g><g transform="translate(619.667802025552 273.8489511171016) rotate(90.49431856359851 -0.5004822530435149 -18.375963241793215)"><path d="M0.3068620003759861 0.5356201492249966 C-1.1085451361111336 -14.505138307963064, 0.4977166439552821 -26.025946422604907, -1.6228182278573513 -36.27352065220475 M-0.5067133624106646 0.43928307481110096 C0.8765706198364933 -7.935481006291665, 1.164100048186301 -15.87703801000578, -0.640468867495656 -37.28754663281143" stroke="#805a46" stroke-width="2" fill="none"></path></g></g><g><g transform="translate(33.08955030256732 99.95455236122018) rotate(90.49431856359851 -0.007922782562673092 -18.279016975313425)"><path d="M-0.6423318348824978 1.9999983869493008 C1.6150351804757521 -10.593445939039377, -1.2410220335626945 -20.47469517833001, -0.47418415173888206 -38.55803233757615 M0.6264862697571516 -0.8812725525349379 C0.3260411489247781 -8.097596534144104, -0.5737503927242505 -16.84085877102887, 0.10760465078055859 -37.03074592165649" stroke="#805a46" stroke-width="2" fill="none"></path></g></g><g><g transform="translate(36.59468300520314 127.06909747942143) rotate(90.49431856359851 0.5593629172071815 -18.42450910434127)"><path d="M1.9999983869493008 1.9221364296972752 C-0.08352200497589363 -15.980798369667466, 0.17869914517090368 -30.684703167566045, -0.8431885875761509 -38.77115463837981 M-0.8812725525349379 0.09261658601462841 C0.6980809979636251 -10.359330920055072, 0.810574057701233 -19.12779883459589, 0.6840978283435106 -37.12857178039849" stroke="#805a46" stroke-width="2" fill="none"></path></g></g><g><g transform="translate(35.419942928917976 156.08892849754977) rotate(90.49431856359851 0.43291277065873146 -18.851256609894335)"><path d="M1.9221364296972752 -0.5524020828306675 C-0.8302334413624339 -7.942945968140413, -0.5030947053099953 -16.196289080319985, -1.0563108883798122 -38.397736731916666 M0.09261658601462841 0.6952235121279955 C-1.0215222978516976 -11.09768572838322, -0.2190357037838112 -23.252232278083394, 0.586271969601512 -37.28059911541641" stroke="#805a46" stroke-width="2" fill="none"></path></g></g><g><g transform="translate(34.47801059165579 195.60623321599803) rotate(90.49431856359851 -0.007812069224769402 -19.328966917470098)"><path d="M-0.5524020828306675 -1.0009403191506863 C-0.6978230060492205 -10.762796855799825, -1.3338950187847514 -21.38113362596458, -0.682892981916666 -37.14197384938598 M0.6952235121279955 -0.8658460695296526 C1.1652072757023415 -13.729201036481683, 0.9455895266502193 -26.837107863457938, 0.4342446345835924 -37.79208776541054" stroke="#805a46" stroke-width="2" fill="none"></path></g></g><g><g transform="translate(32.86573047150398 219.3334492731459) rotate(90.49431856359851 -0.23309131551872042 -18.55816694907844)"><path d="M-1.0009403191506863 -0.3901457227766514 C-0.9842468769259721 -16.07843256333799, -1.466373633730036 -30.904071436043886, 0.5728699006140232 -36.2118712104857 M-0.8658460695296526 0.7443777341395617 C-0.12412582226977972 -7.505419507248298, 0.4075096827378002 -15.693051977819707, -0.07724401541054249 -37.86071163229644" stroke="#805a46" stroke-width="2" fill="none"></path></g></g><g><g transform="translate(32.712129784950434 258.19748767486533) rotate(90.49431856359851 0.4488070339918977 -19.68489210214466)"><path d="M-0.3901457227766514 -0.7241841517388821 C-0.8906835936028074 -16.145139888220438, -0.6313612825721066 -29.356039274466166, 1.5029725395143032 -39.227388855069876 M0.7443777341395617 -0.14239534921944141 C0.2509488404618606 -11.248003132594315, 0.0784110613523081 -23.497958834976018, -0.14586788229644299 -38.403390081599355" stroke="#805a46" stroke-width="2" fill="none"></path></g></g><g><g transform="translate(30.56876832024375 286.7100428444113) rotate(90.49431856359851 -0.6048336736508872 -18.800359277054667)"><path d="M-0.7241841517388821 -1.093188587576151 C-1.0507155511149175 -11.137075538741922, 0.6465602118435345 -19.15588025628968, -1.5125451050698757 -37.27961057797074 M-0.14239534921944141 0.4340978283435106 C0.7530404344695125 -13.661713460071915, 0.181905037260658 -28.08592312727211, -0.6885463315993547 -38.034816382452846" stroke="#805a46" stroke-width="2" fill="none"></path></g></g><g><g transform="translate(35.37537487246993 73.78638696402652) rotate(90.49431856359851 -0.19922047111526808 -18.13875645585358)"><path d="M-1.093188587576151 -1.3063108883798122 C-0.7973209931882593 -9.040674361193524, 1.4510327742533264 -20.490538858874643, 0.4352331720292568 -36.07439672574401 M0.4340978283435106 0.33627196960151196 C-0.041281472159826055 -8.322462381389489, -0.5680401407781028 -16.92933905193029, -0.3199726324528456 -36.613784881308675" stroke="#805a46" stroke-width="2" fill="none"></path></g></g><g><g transform="translate(32.1773451790192 180.89597236031216) rotate(90.49431856359851 0.16706806793808937 -19.506145627237856)"><path d="M-1.3063108883798122 -0.932892981916666 C0.5286503095349326 -9.254276672573326, -1.4866415176836745 -20.830631737880474, 1.640447024255991 -39.196535889059305 M0.33627196960151196 0.18424463458359241 C-0.18028637696472288 -14.425205801919075, -0.6979792498000461 -28.62756322712725, 1.1010588686913252 -38.002193151041865" stroke="#805a46" stroke-width="2" fill="none"></path></g></g><g><g transform="translate(33.81780959023001 237.3022971409206) rotate(90.49431856359851 -0.4847383235540974 -18.767455770634115)"><path d="M-0.932892981916666 0.3228699006140232 C1.5237009357316857 -11.643793036903226, 0.5219092663499032 -18.373681728021186, -1.4816921390593052 -35.97608828172088 M0.18424463458359241 -0.3272440154105425 C-0.4870618391379685 -11.645358185600053, -0.5897264730248571 -20.561724159386067, -0.28734940104186535 -37.85778144188225" stroke="#805a46" stroke-width="2" fill="none"></path></g></g><g><g transform="translate(31.11311452555185 274.8997323671016) rotate(90.49431856359851 0.6401708455044286 -18.24833095446229)"><path d="M0.3228699006140232 1.2529725395143032 C-1.4565062958042108 -9.005246855602165, 1.757820976176954 -20.113818310549544, 1.7387554682791233 -37.74963444843888 M-0.3272440154105425 -0.395867882296443 C-0.978677653877021 -13.436227100149699, 0.8967799921222468 -26.269397724849114, -0.1429376918822527 -36.96016859821975" stroke="#805a46" stroke-width="2" fill="none"></path></g></g></svg>